<svg width="200" height="56" viewBox="0 0 200 56" fill="none" xmlns="http://www.w3.org/2000/svg">
<path d="M53.9995 13.5172C51.1885 13.5172 49.2558 14.5705 48.026 16.5016C46.7962 18.4326 46.7962 19.3103 46.7962 22.2947V23.8746H44.5121V28.0878H46.7962V43.8871H51.7155V28.0878H56.8106V23.8746H51.7155V22.2947C51.7155 19.1348 51.8912 18.6082 53.6482 17.906C53.9995 17.7304 54.3509 17.7304 54.7023 17.7304C55.2294 17.7304 55.7565 17.906 56.1079 18.0815L56.8106 18.4326V14.395L56.6349 14.2194C55.9322 13.6928 55.0537 13.5172 53.9995 13.5172ZM59.7974 13.1661H64.7168V43.8871H59.7974V13.1661ZM79.2993 23.5235C73.5014 23.5235 68.9334 28.0878 68.9334 33.8809C68.9334 39.674 73.5014 44.2382 79.2993 44.2382C85.0971 44.2382 89.6651 39.674 89.6651 33.8809C89.6651 28.0878 85.0971 23.5235 79.2993 23.5235ZM79.2993 40.2006C76.1368 40.2006 73.6771 37.5674 73.6771 33.8809C73.6771 30.1944 76.1368 27.5611 79.2993 27.5611C82.4617 27.5611 84.9214 30.1944 84.9214 33.8809C84.9214 37.5674 82.4617 40.2006 79.2993 40.2006ZM137.278 36.3386L133.764 25.8056L133.061 23.8746H129.547L129.02 25.8056L125.506 36.3386L121.29 24.0502L121.465 23.8746H116.37L116.546 24.2257L112.329 36.3386L108.816 25.8056L108.113 23.8746H104.599L103.721 25.8056L100.207 36.3386L95.9901 23.8746H91.0707L98.6254 43.8871H101.612L106.005 32.3009L110.397 43.8871H113.384L118.479 30.5455L123.574 43.8871H126.561L130.953 32.3009L135.345 43.8871H138.859L146.589 23.8746H141.67L137.278 36.3386ZM157.834 23.5235C152.036 23.5235 147.468 28.0878 147.468 33.8809C147.468 39.674 152.036 44.2382 157.834 44.2382C163.632 44.2382 168.2 39.674 168.2 33.8809C168.2 28.0878 163.632 23.5235 157.834 23.5235ZM157.834 40.2006C154.671 40.2006 152.212 37.5674 152.212 33.8809C152.212 30.1944 154.671 27.5611 157.834 27.5611C160.996 27.5611 163.456 30.1944 163.456 33.8809C163.456 37.5674 160.996 40.2006 157.834 40.2006ZM194.905 23.8746L190.688 36.3386L187.174 25.8056L186.472 23.8746H182.958L182.431 25.8056L178.917 36.3386L174.7 23.8746H169.781L177.511 43.8871H180.498L184.89 32.3009L189.283 43.8871H192.27L200 23.8746H194.905ZM18.861 36.6897L18.6854 25.8056C23.7804 25.1034 27.47 22.1191 29.4026 16.8527C31.1595 12.2884 31.5109 5.44201 30.9838 1.75549C27.9971 2.45768 23.4291 4.91536 22.0235 6.1442C20.9694 4.21317 18.5097 1.40439 16.7527 0C14.9958 1.57994 12.5361 4.21317 11.482 6.1442C10.0764 4.91536 5.50842 2.45768 2.52165 1.75549C1.99457 5.44201 2.34595 12.2884 4.10288 16.8527C6.0355 22.1191 9.72504 25.1034 14.8201 25.8056V36.8652C14.8201 36.8652 14.8201 36.6897 14.6444 36.6897C12.009 32.4765 6.91396 27.9122 0.237645 26.1567C-1.1679 37.7429 3.5758 51.4357 16.7527 56C29.9297 51.4357 34.6734 37.5674 33.2678 25.9812C26.5915 27.9122 21.6721 32.4765 18.861 36.6897ZM3.92719 31.7743C9.02227 34.7586 14.8201 40.3762 14.6444 50.9091C8.14381 46.6959 4.62996 40.3762 3.92719 31.7743ZM16.7527 21.9436C8.49519 21.9436 6.56257 14.5705 6.21119 7.19749C8.49519 8.42633 10.6035 10.1818 12.3604 12.1129C13.5903 9.47962 14.6444 7.54859 16.7527 5.44201C18.861 7.54859 19.9152 9.47962 21.1451 12.1129C22.902 10.3574 25.0103 8.42633 27.2943 7.37304C26.9429 14.5705 25.0103 21.9436 16.7527 21.9436ZM18.861 50.9091C18.861 40.3762 24.6589 34.5831 29.5783 31.7743C29.0512 40.3762 25.5374 46.6959 18.861 50.9091Z" fill="#FA4D1E"/>
</svg>
