<svg width="188" height="248" viewBox="0 0 188 248" fill="none" xmlns="http://www.w3.org/2000/svg">
<g clip-path="url(#clip0_125_86)">
<path d="M178.764 16.3048L32.8277 0.966305C28.0931 0.468677 23.8515 3.90343 23.3539 8.63805L0.901164 222.261C0.403536 226.996 3.83829 231.238 8.57291 231.735L154.509 247.074C159.244 247.571 163.485 244.137 163.983 239.402L186.436 25.7786C186.933 21.044 183.498 16.8024 178.764 16.3048Z" fill="#181727"/>
<path d="M101.216 25.4188L16.7153 225.06L17.6501 225.158L101.279 27.5973L37.0334 227.195L37.9483 227.291L102.917 25.4971L62.8213 229.906L63.7363 230.002L103.325 28.1241L81.9062 231.912L82.8112 232.007L104.164 28.8457L99.8573 233.798L100.762 233.893L105.085 28.2185L119.211 235.832L120.126 235.929L105.814 25.6809L145.824 238.63L146.769 238.729L107.172 27.9753L157.282 205.767L157.478 206.482L157.734 204.045L157.538 203.331L107.509 25.8188L162.048 160.417L162.263 160.962L162.464 159.043L162.25 158.498L109.092 27.3124L164.654 135.624L164.878 136.079L165.05 134.439L164.827 133.983L108.756 24.6728L167.179 111.606L167.413 111.962L167.562 110.54L167.328 110.184L110.904 26.2359L168.655 97.5633L168.895 97.86L169.029 96.587L168.789 96.2803L112.007 26.1709L169.821 86.4644L170.066 86.7214L170.19 85.5379L169.946 85.2809L112.213 25.0664L170.894 76.2606L171.141 76.4877L171.257 75.3838L171.01 75.1567L110.939 22.7504L172.122 64.575L172.375 64.7524L172.482 63.728L172.23 63.5506L113.503 23.4122L172.949 56.7083L173.205 56.8559L173.307 55.8812L173.051 55.7337L112.231 21.6495L173.889 47.7576L174.15 47.8654L174.249 46.9206L173.99 46.8029L114.399 21.5858L174.603 40.965L174.866 41.0529L174.962 40.138L174.7 40.0501L112.297 19.9672L175.429 32.3441L174.539 31.245L114.925 19.5496L169.743 25.3112L169.235 24.6947L40.3943 11.153L39.7789 11.6514L94.0201 17.3524L34.2946 16.0925L33.1956 16.9825L94.6473 18.273L32.2004 22.5289L31.846 22.5519L31.7498 23.4669L32.1042 23.4438L97.1939 19.0133L31.268 31.4L30.9094 31.4629L30.8112 32.3977L31.1697 32.3348L94.9104 20.362L30.5216 38.5009L30.1589 38.6035L30.0565 39.5782L30.4181 39.4855L97.056 20.7081L29.5161 48.0682L29.1481 48.2206L29.0415 49.235L29.4084 49.0925L95.5733 22.2818L28.6161 56.631L28.245 56.8132L28.1321 57.8873L28.5032 57.7051L98.203 21.9448L27.2499 69.6294L26.8704 69.8912L26.7471 71.0647L27.1255 70.8129L96.6398 24.0932L26.0259 81.2753L25.6422 81.5768L25.5074 82.8597L25.891 82.5582L96.7248 25.1981L24.6576 94.2936L24.2666 94.6647L24.1203 96.0571L24.5112 95.6859L97.7984 25.4115L22.8712 111.29L22.4719 111.741L22.3078 113.302L22.7071 112.851L100.125 24.1277L19.6622 141.822L19.2472 142.422L19.0465 144.331L19.4615 143.731L99.4725 26.7036L16.127 175.456L15.6953 176.216L15.4559 178.493L15.8887 177.724L101.216 25.4188Z" fill="url(#paint0_radial_125_86)"/>
<path d="M166.078 124.662C165.854 124.398 165.631 124.133 165.396 123.877L165.316 123.778C163.697 122.077 161.954 120.499 160.101 119.057C156.728 116.317 153.167 113.816 149.445 111.572C146.672 109.962 143.8 108.528 140.847 107.28C139.108 106.504 135.995 104.558 133.931 104.864C134.812 104.728 135.665 104.455 136.46 104.054C136.46 104.054 136.52 104.06 136.546 104.002C137.549 103.473 138.443 102.758 139.18 101.896C141.12 99.6813 142.156 96.8187 142.085 93.8757C141.911 88.9304 138.927 84.4038 135.253 81.0011C132.345 78.1323 128.716 76.1039 124.749 75.131C121.267 74.5721 117.713 74.6621 114.264 75.3964C108.366 76.4055 102.085 78.3798 98.6675 83.2492C95.8725 87.1685 95.4854 92.2861 95.7338 97.0984C95.9897 102.112 96.8169 107.081 98.1993 111.907C99.7307 117.237 102.922 122.368 102.992 127.916C102.704 127.886 102.386 127.852 102.097 127.822C101.33 127.741 100.559 127.701 99.7873 127.7C85.6768 127.443 71.5481 134.917 62.9002 145.542C58.6367 150.805 54.3843 156.632 49.3878 161.215C48.8331 161.71 48.2783 162.205 47.6969 162.666C44.2296 165.7 40.051 167.807 35.5502 168.79C29.3876 170.023 23.0084 168.628 17.0134 166.641L11.8402 215.86L17.932 223.337L142.874 236.469C142.749 235.799 142.679 235.119 142.665 234.436C142.63 233.808 142.646 233.177 142.712 232.551C142.798 231.74 142.959 230.939 143.195 230.158C143.294 229.777 143.42 229.404 143.574 229.042C143.735 228.657 143.884 228.29 144.059 227.967C144.185 227.68 144.331 227.403 144.498 227.138C144.653 226.839 144.841 226.559 145.059 226.302C145.491 225.662 145.978 225.061 146.514 224.504C146.768 224.233 147.04 223.979 147.328 223.745C147.7 223.396 148.1 223.078 148.524 222.795C148.706 222.658 148.903 222.544 149.113 222.455C149.413 222.22 149.744 222.028 150.098 221.885C150.145 221.844 150.2 221.812 150.259 221.791C151.79 221.036 153.452 220.582 155.155 220.455C155.449 220.436 155.732 220.416 156.014 220.415L166.078 124.662Z" fill="url(#paint1_linear_125_86)"/>
<path d="M93.2499 215.538C92.8322 215.494 92.8865 214.977 93.065 214.714C93.2688 214.45 93.5135 214.222 93.7898 214.036C94.4053 213.537 95.0297 213.05 95.6708 212.595C99.1076 210.025 102.971 208.082 107.083 206.856C108.482 206.453 109.908 206.153 111.35 205.957C113.63 205.65 115.94 205.629 118.225 205.895C119.328 206.03 120.422 206.239 121.497 206.521C122.026 206.657 122.551 206.823 123.066 206.997C123.58 207.172 124.04 207.301 123.572 207.825C123.105 208.349 122.854 207.961 122.437 207.816C122.02 207.672 121.511 207.538 121.051 207.419C116.535 206.339 111.814 206.471 107.366 207.801C105.385 208.374 103.463 209.135 101.627 210.073C99.6537 211.081 97.7682 212.251 95.9902 213.573C95.5189 213.913 95.0593 214.266 94.6117 214.635C94.315 214.875 93.7283 215.578 93.2499 215.538Z" fill="#181727"/>
<path d="M31.7384 200.656C31.2795 200.367 30.8052 200.096 30.3156 199.843C29.3318 199.331 28.3132 198.888 27.2675 198.517C25.0958 197.752 22.8369 197.261 20.5434 197.056C19.0948 196.925 17.6383 196.903 16.1864 196.991C15.3842 197.034 14.5917 197.111 13.8091 197.223L13.7045 198.218C14.5519 198.096 15.3962 198.004 16.2462 197.952C20.8775 197.64 25.5091 198.557 29.6719 200.61C30.1017 200.826 30.5294 201.062 30.9361 201.306C31.3429 201.55 31.6109 201.87 32.0453 201.563C32.4797 201.257 32.1206 200.847 31.7384 200.656Z" fill="#181727"/>
<path d="M90.8108 156.087C90.7691 155.351 90.8197 154.614 90.9612 153.891C91.2119 152.462 91.7913 151.112 92.6538 149.946C93.5163 148.78 94.6381 147.831 95.9306 147.173C97.2727 146.522 98.7775 146.282 100.256 146.484C101.734 146.685 103.119 147.32 104.238 148.308C104.293 148.359 104.337 148.421 104.368 148.489C104.399 148.558 104.415 148.632 104.417 148.708C104.418 148.783 104.404 148.857 104.376 148.927C104.348 148.997 104.306 149.061 104.253 149.114C104.147 149.223 104.001 149.286 103.848 149.289C103.696 149.292 103.548 149.234 103.437 149.129C102.486 148.312 101.317 147.79 100.074 147.626C98.8312 147.461 97.5672 147.661 96.4359 148.202C95.3071 148.784 94.3282 149.62 93.5753 150.643C92.8225 151.666 92.316 152.849 92.0955 154.1C91.5526 156.969 92.5978 159.653 95.4012 162.542C96.0165 163.21 96.7062 163.806 97.457 164.317C100.281 166.152 104.35 165.705 107.651 165.388C110.043 165.042 112.313 164.113 114.262 162.684C116.211 161.255 117.779 159.369 118.829 157.192C120.883 152.745 121.326 147.722 120.081 142.985C118.677 137.206 115.458 132.534 111.163 130.152C109.549 129.264 107.809 128.627 106.002 128.262C105.058 128.064 104.101 127.93 103.139 127.861C102.395 127.828 101.655 127.751 100.921 127.628C100.785 127.616 100.654 127.567 100.544 127.488C100.288 127.24 100.613 126.831 100.847 126.705C101.439 126.335 102.943 126.664 103.621 126.715C104.619 126.806 105.611 126.96 106.589 127.178C108.38 127.579 110.106 128.23 111.715 129.114C116.299 131.607 119.747 136.595 121.188 142.689C122.493 147.673 122.023 152.956 119.858 157.632C118.715 159.972 117.016 161.996 114.909 163.528C112.803 165.059 110.353 166.051 107.774 166.417C104.295 166.795 99.9625 167.265 96.8416 165.197C96.0201 164.64 95.2652 163.991 94.5916 163.261C93.0273 161.689 91.0186 159.276 90.8108 156.087Z" fill="#181727"/>
<path d="M133.568 105.831C132.75 105.966 131.975 106.066 131.311 106.167C127.288 106.75 120.935 105.489 117.283 102.249C116.365 101.503 115.631 100.554 115.141 99.4765C114.65 98.3991 114.416 97.2227 114.457 96.0397C114.537 94.9898 114.858 93.9723 115.394 93.0662C115.93 92.16 116.668 91.3896 117.55 90.8144C118.409 90.1859 119.4 89.7616 120.448 89.5738C121.496 89.3859 122.573 89.4395 123.597 89.7305C123.669 89.7513 123.736 89.7864 123.795 89.8339C123.854 89.8814 123.902 89.9402 123.937 90.0068C123.972 90.0734 123.994 90.1465 124 90.2216C124.006 90.2967 123.998 90.3723 123.974 90.4439C123.952 90.5166 123.916 90.5841 123.867 90.6426C123.819 90.7011 123.759 90.7493 123.692 90.7844C123.624 90.8194 123.551 90.8407 123.475 90.8468C123.399 90.853 123.323 90.844 123.251 90.8203C122.395 90.5892 121.499 90.5527 120.628 90.7134C119.757 90.8741 118.933 91.228 118.216 91.7491C117.478 92.2276 116.86 92.8684 116.408 93.6225C115.955 94.3766 115.682 95.2241 115.607 96.1002C115.58 97.1118 115.788 98.1159 116.215 99.0333C116.642 99.9507 117.276 100.756 118.068 101.386C121.416 104.353 127.462 105.571 131.15 105.014C132.966 104.793 134.75 104.36 136.465 103.722C136.826 103.587 137.178 103.43 137.52 103.25C137.85 103.073 138.92 102.08 139.261 102.367C139.333 102.435 139.385 102.521 139.413 102.616C139.44 102.71 139.441 102.811 139.416 102.906C139.355 103.097 139.258 103.275 139.13 103.429C138.011 104.89 135.667 105.478 133.568 105.831Z" fill="#181727"/>
<path d="M141.075 191.304C140.526 191.357 139.978 191.41 139.442 191.434C136.476 191.625 133.499 191.343 130.622 190.597C120.442 187.858 113.402 179.074 106.291 171.339C105.262 170.225 104.173 169.105 103.064 167.983C102.68 167.621 102.296 167.259 101.89 166.914C95.4695 161.031 87.7996 156.324 79.3873 157.34C74.9168 157.875 63.1788 159.729 62.3878 152.617C62.0026 149.107 65.2336 145.536 67.9054 143.745C70.7531 141.812 74.0243 140.537 76.6771 138.352C78.5873 136.741 80.1 134.711 81.0977 132.419C82.0954 130.128 82.5512 127.638 82.4296 125.141C82.4086 124.576 82.3268 124.014 82.2529 123.474C82.158 122.861 82.013 122.257 81.8193 121.669C79.295 112.776 69.1705 107.217 59.9247 109.946C56.0233 111.094 52.5498 114.198 51.8134 118.143C51.3312 120.626 51.899 123.26 51.4697 125.718C51.4523 125.797 51.4439 125.877 51.4446 125.957C51.402 126.078 51.3687 126.202 51.3452 126.329C51.273 126.692 51.0906 127.024 50.823 127.279C50.5118 127.47 50.1527 127.569 49.7877 127.563C43.3119 127.948 36.4137 127.665 30.1852 129.524C27.2282 130.393 24.4068 131.67 21.8027 133.319C21.2378 133.669 20.694 134.051 20.174 134.465L11.6601 215.469L17.9419 223.339L147.14 236.918L154.946 230.579L159.616 186.144C153.41 188.367 147.294 190.681 141.075 191.304Z" fill="url(#paint2_linear_125_86)"/>
<path d="M154.306 236.665L153.521 236.1C151.651 234.757 149.847 233.361 148.074 231.958C145.609 230.06 143.091 228.086 140.441 226.32C138.408 224.903 136.238 223.695 133.963 222.713C133.086 222.347 132.189 222.031 131.277 221.767C130.791 221.605 130.301 221.483 129.803 221.35C126.509 220.561 123.149 220.083 119.767 219.923C114.347 219.472 108.895 219.573 103.496 220.224C100.989 220.643 98.5289 221.304 96.1497 222.197C94.514 222.739 92.8135 223.325 91.1219 223.73C90.0939 223.944 89.1534 224.187 88.1531 224.424C82.9994 225.787 77.7682 226.839 72.4881 227.573C71.4706 227.688 70.4541 227.792 69.5104 227.874L67.7307 227.968C65.7573 228.045 63.781 227.995 61.8139 227.819C58.2448 227.517 54.7401 226.688 51.4141 225.358C49.4957 224.586 47.6958 223.547 46.0674 222.273C42.011 218.913 38.5449 214.899 35.8127 210.396C33.1798 206.048 30.785 201.56 28.6387 196.952C27.9402 195.561 27.2726 194.164 26.5741 192.773C25.9998 191.637 25.4065 190.489 24.7903 189.368C24.507 188.906 24.2337 188.445 23.9285 188.001C22.4398 185.403 20.4508 183.126 18.0766 181.302C17.6552 181.007 17.2129 180.719 16.7208 180.426C16.2288 180.133 15.7713 179.894 15.2939 179.652L15.1998 180.547C15.6929 180.787 16.1681 181.062 16.6215 181.371C16.9507 181.553 17.2651 181.761 17.5617 181.992C19.9332 183.821 21.9122 186.108 23.3806 188.717C23.6659 189.16 23.9194 189.619 24.1728 190.078C24.7398 191.092 25.2728 192.144 25.799 193.165C26.4865 194.564 27.1651 195.953 27.8635 197.343C30.025 201.978 32.4374 206.491 35.0899 210.863C37.863 215.442 41.3919 219.519 45.5268 222.92C46.5547 223.729 47.6542 224.444 48.8116 225.055C50.3893 225.903 52.0487 226.59 53.7646 227.104L69.1598 228.722C71.4307 228.584 73.6916 228.315 75.9312 227.915C80.1358 227.231 84.2644 226.217 88.3731 225.201C89.4011 224.987 90.3416 224.744 91.3418 224.507C93.0534 224.104 94.7748 223.511 96.4403 222.972C98.7614 222.098 101.16 221.444 103.604 221.02C108.953 220.375 114.354 220.269 119.725 220.703C123.034 220.858 126.321 221.321 129.544 222.087C130.035 222.199 130.523 222.341 131.02 222.494C131.896 222.767 132.769 223.07 133.647 223.423C135.863 224.38 137.976 225.559 139.954 226.942C142.566 228.685 145.083 230.659 147.517 232.563C148.921 233.656 150.303 234.757 151.779 235.837C152.582 236.424 153.385 237.011 154.202 237.559L154.306 236.665Z" fill="#181727"/>
<path d="M63.9106 130.284C63.632 130.507 63.3384 130.712 63.0319 130.895C61.9166 131.574 60.6553 131.976 59.353 132.068C58.0507 132.161 56.7452 131.94 55.5454 131.426C54.3106 130.833 53.5226 129.624 52.3621 128.899C41.5125 122.108 49.9464 121.365 50.5277 120.139C51.5065 120.393 52.3917 127.565 52.9791 128.29C53.7666 129.292 54.7713 130.103 55.9175 130.66C56.9879 131.116 58.1517 131.308 59.3118 131.222C60.4719 131.136 61.5945 130.773 62.5858 130.165C63.3647 129.749 64.0254 129.142 64.506 128.401C64.9865 127.66 65.2713 126.81 65.3336 125.929C65.3405 125.303 65.2159 124.682 64.9681 124.107C64.7203 123.532 64.3546 123.015 63.8948 122.59C63.5709 122.269 63.1822 122.022 62.7548 121.864C62.3273 121.707 61.8711 121.643 61.4167 121.676C61.304 121.685 61.192 121.651 61.104 121.58C61.0159 121.509 60.9587 121.407 60.944 121.294C60.9381 121.239 60.9433 121.183 60.9593 121.13C60.9753 121.076 61.0018 121.026 61.0372 120.983C61.0726 120.94 61.1163 120.905 61.1656 120.879C61.2149 120.853 61.2689 120.837 61.3245 120.832C61.9018 120.781 62.4833 120.856 63.0287 121.053C63.5741 121.249 64.0703 121.561 64.483 121.968C65.0279 122.475 65.4617 123.09 65.7568 123.774C66.0518 124.457 66.2019 125.195 66.1973 125.939C66.1564 126.786 65.9305 127.614 65.5355 128.365C65.1404 129.115 64.5858 129.77 63.9106 130.284Z" fill="#181727"/>
<path d="M64.1905 192.866C61.2323 195.112 57.5262 196.14 53.8335 195.739L53.197 195.672C48.9113 195.231 44.8752 193.445 41.6672 190.569C36.8463 186.211 34.5177 179.762 33.0377 174.71C32.6397 173.331 32.2615 171.954 31.8944 170.568C30.8748 166.117 29.3704 161.791 27.4082 157.668C25.7045 154.264 23.1584 151.352 20.0119 149.209C19.5551 148.901 19.0811 148.62 18.5923 148.366L18.6748 147.58C19.1665 147.82 19.6418 148.091 20.0976 148.393C23.518 150.618 26.2878 153.709 28.1252 157.351C30.2688 161.448 31.4807 165.99 32.6664 170.398C33.0346 171.774 33.3829 173.148 33.8097 174.54C35.296 179.533 37.5299 185.831 42.233 190.065C45.474 192.97 49.5869 194.718 53.9276 195.035C57.4301 195.41 60.9454 194.451 63.7722 192.349C65.12 191.296 66.1253 189.867 66.6611 188.243C67.1969 186.619 67.2392 184.872 66.7826 183.224C66.134 181.529 64.8979 180.123 63.2995 179.263C61.7011 178.403 59.8468 178.145 58.0747 178.538C56.841 178.808 55.7279 179.47 54.9023 180.426C54.0767 181.381 53.5831 182.579 53.4956 183.838C53.5264 184.499 53.7048 185.145 54.0177 185.727C54.3305 186.31 54.7699 186.815 55.3035 187.206C55.7296 187.551 56.2294 187.793 56.7643 187.914C57.2991 188.035 57.8546 188.031 58.3876 187.902L58.5939 188.618C57.9496 188.771 57.2789 188.777 56.632 188.634C55.9852 188.491 55.3793 188.204 54.8597 187.793C54.2359 187.336 53.7231 186.744 53.3596 186.062C52.9961 185.38 52.7912 184.624 52.7602 183.852C52.8468 182.439 53.3863 181.093 54.2987 180.011C55.2112 178.93 56.4479 178.171 57.8254 177.848C59.7856 177.401 61.8415 177.677 63.6138 178.627C65.386 179.576 66.7551 181.135 67.4682 183.015C67.9606 184.797 67.9118 186.685 67.3282 188.439C66.7445 190.193 65.6523 191.734 64.1905 192.866Z" fill="#181727"/>
<path d="M123.119 208.602C123.082 208.62 123.041 208.628 123.001 208.624C122.96 208.62 122.921 208.604 122.89 208.578C122.246 208.007 124.89 205.711 125.366 205.299C128.053 202.975 131.353 201.476 134.87 200.978C135.875 200.832 136.89 200.771 137.906 200.795C138.333 200.84 138.771 200.886 139.198 200.931C139.626 200.975 140.488 200.905 140.77 201.096C141.3 201.503 140.342 201.724 140.079 201.737C139.636 201.741 139.204 201.645 138.756 201.598C138.091 201.533 137.423 201.503 136.755 201.508C133.343 201.646 130.043 202.762 127.247 204.722C126.405 205.303 125.621 205.965 124.907 206.698C124.666 206.985 123.669 208.438 123.119 208.602Z" fill="#181727"/>
<path d="M154.397 237.902L10.5694 222.785L32.9197 10.1361L176.747 25.2531L154.397 237.902ZM10.8311 222.591L154.201 237.66L176.505 25.4588L33.1343 10.39L10.8311 222.591Z" fill="url(#paint3_linear_125_86)"/>
<path d="M13.8383 220.192C13.8685 220.188 13.8993 220.191 13.9278 220.202C13.9438 220.228 13.9507 220.259 13.9475 220.289C13.9443 220.32 13.9311 220.348 13.91 220.371L13.5364 220.673C13.5101 220.689 13.4794 220.696 13.4488 220.693C13.4183 220.69 13.3896 220.677 13.3673 220.656C13.3559 220.644 13.3472 220.63 13.3418 220.615C13.3364 220.599 13.3345 220.583 13.3362 220.567C13.3379 220.551 13.3432 220.535 13.3516 220.521C13.3601 220.507 13.3715 220.496 13.3851 220.487L13.7587 220.184C13.7854 220.178 13.8135 220.181 13.8383 220.192Z" fill="url(#paint4_linear_125_86)"/>
<path d="M13.059 220.814C13.0857 220.807 13.1141 220.81 13.1386 220.823C13.1485 220.835 13.156 220.849 13.1605 220.864C13.165 220.879 13.1665 220.895 13.1648 220.911C13.1632 220.927 13.1584 220.942 13.1509 220.956C13.1433 220.97 13.1331 220.982 13.1208 220.992L12.7471 221.294C12.7232 221.312 12.6937 221.319 12.6644 221.316C12.635 221.313 12.6078 221.299 12.588 221.278C12.5781 221.265 12.5706 221.251 12.5661 221.236C12.5616 221.221 12.5602 221.205 12.5618 221.189C12.5635 221.174 12.5682 221.158 12.5757 221.145C12.5833 221.131 12.5935 221.118 12.6058 221.108L12.9695 220.805C12.9996 220.799 13.0307 220.803 13.059 220.814Z" fill="url(#paint5_linear_125_86)"/>
<path d="M13.4071 220.851C13.4201 220.846 13.4341 220.844 13.4479 220.846C13.4617 220.847 13.475 220.852 13.4867 220.859L13.7903 221.223C13.8104 221.248 13.8198 221.279 13.8164 221.311C13.8131 221.343 13.7973 221.372 13.7725 221.392C13.7478 221.412 13.716 221.422 13.6843 221.418C13.6526 221.415 13.6235 221.399 13.6035 221.374L13.3009 221.001C13.2965 220.984 13.2958 220.966 13.299 220.949C13.3022 220.932 13.3091 220.915 13.3192 220.901C13.3293 220.887 13.3424 220.875 13.3576 220.866C13.3728 220.858 13.3897 220.852 13.4071 220.851Z" fill="url(#paint6_linear_125_86)"/>
<path d="M12.7951 220.073C12.8081 220.068 12.8221 220.066 12.8359 220.067C12.8497 220.069 12.8629 220.074 12.8747 220.081L13.1872 220.456C13.2032 220.482 13.2101 220.513 13.2069 220.543C13.2037 220.574 13.1905 220.602 13.1694 220.625C13.1572 220.635 13.1431 220.642 13.1279 220.647C13.1128 220.651 13.0969 220.653 13.0812 220.651C13.0655 220.649 13.0503 220.645 13.0364 220.637C13.0225 220.63 13.0103 220.619 13.0004 220.607L12.6988 220.223C12.6874 220.213 12.6787 220.2 12.6732 220.185C12.6678 220.171 12.6658 220.155 12.6674 220.14C12.669 220.124 12.6742 220.109 12.6826 220.096C12.6909 220.083 12.7022 220.072 12.7155 220.064C12.7286 220.059 12.7425 220.058 12.7563 220.059C12.7701 220.061 12.7834 220.065 12.7951 220.073Z" fill="url(#paint7_linear_125_86)"/>
<path d="M12.0535 220.528L12.8988 220.616C12.9295 220.622 12.9571 220.638 12.9767 220.663C12.9963 220.687 13.0066 220.717 13.0056 220.748C13.0023 220.78 12.9865 220.809 12.9618 220.829C12.9371 220.849 12.9054 220.858 12.8737 220.855L12.0284 220.766C12.0131 220.765 11.9984 220.76 11.9851 220.752C11.9717 220.745 11.9601 220.735 11.951 220.722C11.9419 220.71 11.9355 220.696 11.9321 220.681C11.9288 220.666 11.9286 220.65 11.9315 220.635C11.9346 220.605 11.9488 220.578 11.9714 220.558C11.994 220.538 12.0233 220.527 12.0535 220.528Z" fill="url(#paint8_linear_125_86)"/>
<path d="M13.6248 220.693L14.4204 220.776C14.4501 220.782 14.4765 220.799 14.4945 220.823C14.5124 220.847 14.5206 220.877 14.5173 220.907C14.5171 220.923 14.5137 220.938 14.5073 220.952C14.5009 220.966 14.4917 220.978 14.4802 220.988C14.4687 220.998 14.4552 221.006 14.4406 221.011C14.426 221.015 14.4106 221.017 14.3954 221.015L13.5997 220.931C13.5845 220.93 13.5697 220.925 13.5564 220.918C13.5431 220.91 13.5315 220.9 13.5224 220.887C13.5133 220.875 13.5068 220.861 13.5035 220.846C13.5001 220.831 13.4999 220.816 13.5029 220.801C13.5059 220.771 13.5202 220.743 13.5428 220.723C13.5654 220.703 13.5947 220.692 13.6248 220.693Z" fill="url(#paint9_linear_125_86)"/>
<path d="M13.3823 219.461C13.4139 219.464 13.443 219.48 13.463 219.504C13.483 219.529 13.4924 219.561 13.4891 219.593L13.4013 220.428C13.398 220.46 13.3822 220.489 13.3575 220.509C13.3327 220.529 13.3011 220.538 13.2694 220.535C13.2377 220.531 13.2087 220.516 13.1887 220.491C13.1687 220.466 13.1593 220.434 13.1626 220.403L13.2504 219.567C13.2537 219.536 13.2695 219.507 13.2942 219.487C13.319 219.467 13.3506 219.457 13.3823 219.461Z" fill="url(#paint10_linear_125_86)"/>
<path d="M13.2171 221.032C13.2488 221.035 13.2778 221.051 13.2978 221.076C13.3179 221.101 13.3273 221.132 13.3239 221.164L13.2372 221.989C13.2316 222.02 13.2153 222.048 13.1911 222.067C13.1669 222.087 13.1364 222.097 13.1053 222.096C13.0736 222.093 13.0446 222.077 13.0246 222.052C13.0045 222.028 12.9952 221.996 12.9985 221.964L13.0852 221.139C13.0886 221.107 13.1043 221.078 13.1291 221.058C13.1538 221.038 13.1855 221.029 13.2171 221.032Z" fill="url(#paint11_linear_125_86)"/>
<path d="M12.7905 220.786L13.1188 221.203C13.1411 221.224 13.1697 221.237 13.2003 221.24C13.2308 221.243 13.2616 221.236 13.2878 221.22L13.6955 220.881C13.7088 220.873 13.7201 220.862 13.7285 220.849C13.7368 220.836 13.742 220.821 13.7437 220.806C13.7453 220.79 13.7433 220.775 13.7378 220.76C13.7324 220.746 13.7236 220.733 13.7122 220.722L13.384 220.305C13.3595 220.293 13.3311 220.29 13.3044 220.297C13.2764 220.284 13.245 220.281 13.2149 220.288L12.8072 220.627C12.7939 220.635 12.7826 220.646 12.7743 220.659C12.7659 220.672 12.7607 220.687 12.7591 220.702C12.7575 220.718 12.7595 220.733 12.7649 220.748C12.7704 220.762 12.7791 220.775 12.7905 220.786Z" fill="url(#paint12_linear_125_86)"/>
<path d="M151.609 234.673C151.585 234.661 151.557 234.658 151.53 234.664C151.516 234.673 151.505 234.685 151.496 234.699C151.488 234.713 151.483 234.728 151.481 234.745C151.479 234.761 151.481 234.777 151.487 234.792C151.492 234.808 151.501 234.822 151.512 234.833L151.815 235.207C151.835 235.232 151.864 235.248 151.896 235.251C151.927 235.254 151.959 235.245 151.984 235.225C152.009 235.205 152.024 235.176 152.028 235.144C152.031 235.112 152.022 235.081 152.002 235.056L151.699 234.682C151.67 234.671 151.64 234.668 151.609 234.673Z" fill="url(#paint13_linear_125_86)"/>
<path d="M152.252 235.444C152.224 235.432 152.193 235.429 152.163 235.435C152.142 235.457 152.129 235.486 152.125 235.516C152.122 235.547 152.129 235.578 152.145 235.604L152.448 235.977C152.458 235.99 152.47 236 152.484 236.007C152.498 236.015 152.513 236.02 152.528 236.021C152.544 236.023 152.56 236.022 152.575 236.017C152.59 236.013 152.604 236.005 152.617 235.995C152.629 235.985 152.639 235.973 152.647 235.959C152.654 235.945 152.659 235.93 152.661 235.914C152.662 235.899 152.661 235.883 152.656 235.868C152.652 235.852 152.644 235.838 152.634 235.826L152.332 235.452C152.307 235.44 152.279 235.437 152.252 235.444Z" fill="url(#paint14_linear_125_86)"/>
<path d="M151.874 235.404C151.847 235.39 151.815 235.386 151.785 235.395L151.422 235.689C151.41 235.699 151.4 235.711 151.392 235.725C151.385 235.739 151.38 235.754 151.378 235.77C151.377 235.785 151.378 235.801 151.383 235.816C151.387 235.831 151.394 235.845 151.404 235.858C151.427 235.879 151.455 235.892 151.486 235.895C151.517 235.898 151.547 235.891 151.573 235.875L151.937 235.572C151.951 235.564 151.962 235.553 151.97 235.54C151.979 235.527 151.984 235.512 151.985 235.496C151.987 235.481 151.985 235.465 151.98 235.451C151.974 235.436 151.965 235.423 151.954 235.413C151.942 235.405 151.929 235.401 151.915 235.399C151.901 235.398 151.887 235.4 151.874 235.404Z" fill="url(#paint15_linear_125_86)"/>
<path d="M152.655 234.772C152.643 234.765 152.63 234.76 152.616 234.759C152.602 234.757 152.588 234.759 152.575 234.764L152.201 235.067C152.189 235.077 152.179 235.089 152.171 235.103C152.164 235.117 152.159 235.132 152.157 235.148C152.156 235.163 152.157 235.179 152.162 235.194C152.166 235.209 152.174 235.224 152.184 235.236C152.192 235.249 152.203 235.26 152.216 235.269C152.229 235.277 152.244 235.282 152.259 235.284C152.275 235.286 152.29 235.284 152.305 235.278C152.319 235.273 152.332 235.264 152.343 235.252L152.727 234.941C152.749 234.921 152.763 234.894 152.766 234.865C152.769 234.835 152.761 234.806 152.744 234.782C152.731 234.773 152.716 234.768 152.701 234.767C152.685 234.765 152.669 234.767 152.655 234.772Z" fill="url(#paint16_linear_125_86)"/>
<path d="M153.286 235.372L152.45 235.284C152.418 235.281 152.387 235.29 152.362 235.31C152.337 235.33 152.322 235.359 152.318 235.391C152.315 235.422 152.324 235.454 152.344 235.479C152.364 235.503 152.393 235.519 152.425 235.523L153.26 235.61C153.292 235.614 153.324 235.604 153.349 235.584C153.373 235.564 153.389 235.535 153.392 235.504C153.396 235.472 153.386 235.44 153.366 235.415C153.346 235.391 153.317 235.375 153.286 235.372Z" fill="url(#paint17_linear_125_86)"/>
<path d="M151.714 235.207L150.889 235.12C150.857 235.116 150.825 235.126 150.801 235.146C150.776 235.166 150.76 235.195 150.757 235.227C150.754 235.258 150.763 235.29 150.783 235.315C150.803 235.339 150.832 235.355 150.864 235.358L151.689 235.445C151.721 235.449 151.752 235.439 151.777 235.419C151.802 235.399 151.818 235.37 151.821 235.338C151.824 235.307 151.815 235.275 151.795 235.25C151.775 235.226 151.746 235.21 151.714 235.207Z" fill="url(#paint18_linear_125_86)"/>
<path d="M152.208 234.052C152.192 234.05 152.177 234.052 152.162 234.056C152.148 234.061 152.134 234.069 152.123 234.079C152.111 234.089 152.102 234.101 152.096 234.115C152.089 234.129 152.086 234.144 152.086 234.16L151.998 234.995C151.995 235.01 151.995 235.026 151.998 235.041C152.002 235.055 152.008 235.07 152.017 235.082C152.026 235.094 152.038 235.104 152.051 235.112C152.065 235.12 152.079 235.124 152.095 235.126C152.126 235.129 152.158 235.12 152.183 235.1C152.208 235.08 152.223 235.051 152.227 235.019L152.314 234.184C152.318 234.152 152.308 234.12 152.288 234.096C152.268 234.071 152.239 234.055 152.208 234.052Z" fill="url(#paint19_linear_125_86)"/>
<path d="M152.042 235.623C152.027 235.621 152.012 235.623 151.997 235.628C151.983 235.632 151.969 235.64 151.958 235.65C151.946 235.66 151.937 235.673 151.931 235.687C151.924 235.701 151.921 235.716 151.92 235.731L151.834 236.556C151.83 236.586 151.839 236.617 151.857 236.641C151.875 236.665 151.901 236.682 151.931 236.687C151.962 236.691 151.994 236.681 152.019 236.661C152.043 236.641 152.059 236.612 152.062 236.58L152.149 235.755C152.153 235.723 152.143 235.692 152.123 235.667C152.103 235.642 152.074 235.626 152.042 235.623Z" fill="url(#paint20_linear_125_86)"/>
<path d="M152.521 235.472L152.103 235.81C152.079 235.828 152.05 235.836 152.02 235.833C151.991 235.829 151.964 235.816 151.944 235.794L151.646 235.38C151.634 235.37 151.625 235.357 151.62 235.342C151.615 235.328 151.613 235.312 151.614 235.297C151.616 235.281 151.621 235.266 151.629 235.253C151.638 235.24 151.649 235.229 151.662 235.221L152.08 234.883C152.104 234.866 152.133 234.858 152.163 234.861C152.192 234.864 152.219 234.878 152.239 234.9L152.577 235.317C152.589 235.346 152.59 235.377 152.58 235.406C152.569 235.435 152.548 235.459 152.521 235.472Z" fill="url(#paint21_linear_125_86)"/>
<path d="M173.356 27.7723C173.329 27.7796 173.3 27.7766 173.276 27.764C173.266 27.7517 173.259 27.7376 173.254 27.7224C173.25 27.7073 173.248 27.6914 173.25 27.6757C173.251 27.66 173.256 27.6448 173.264 27.6309C173.271 27.617 173.281 27.6048 173.294 27.5949L173.667 27.2923C173.692 27.2722 173.724 27.2628 173.756 27.2661C173.787 27.2695 173.816 27.2853 173.836 27.3101C173.857 27.3348 173.866 27.3666 173.863 27.3983C173.859 27.43 173.843 27.4591 173.819 27.4791L173.445 27.7817L173.356 27.7723Z" fill="url(#paint22_linear_125_86)"/>
<path d="M174.146 27.1414C174.116 27.1469 174.085 27.1437 174.056 27.132C174.04 27.1058 174.033 27.0751 174.037 27.0445C174.04 27.014 174.053 26.9853 174.074 26.963L174.448 26.6604C174.46 26.6504 174.474 26.643 174.489 26.6385C174.504 26.634 174.52 26.6325 174.536 26.6342C174.552 26.6358 174.567 26.6406 174.581 26.6481C174.595 26.6557 174.607 26.6659 174.617 26.6782C174.633 26.7044 174.64 26.7351 174.637 26.7657C174.633 26.7962 174.62 26.8249 174.599 26.8472L174.225 27.1498C174.199 27.1571 174.17 27.1541 174.146 27.1414Z" fill="url(#paint23_linear_125_86)"/>
<path d="M173.767 27.1117C173.737 27.1162 173.706 27.1129 173.677 27.1023L173.384 26.7396C173.356 26.7114 173.341 26.6733 173.341 26.6337C173.341 26.5941 173.357 26.5563 173.386 26.5286C173.414 26.5009 173.452 26.4856 173.492 26.486C173.531 26.4864 173.569 26.5025 173.597 26.5307L173.89 26.8934C173.902 26.905 173.91 26.9189 173.916 26.9343C173.921 26.9496 173.923 26.966 173.921 26.9821C173.92 26.9983 173.914 27.0139 173.906 27.0278C173.898 27.0417 173.886 27.0535 173.873 27.0625C173.861 27.079 173.845 27.0922 173.826 27.1008C173.808 27.1094 173.787 27.1131 173.767 27.1117Z" fill="url(#paint24_linear_125_86)"/>
<path d="M174.398 27.902C174.371 27.9083 174.343 27.9054 174.318 27.8936L174.016 27.5199C174.004 27.5083 173.995 27.4944 173.99 27.479C173.985 27.4637 173.983 27.4474 173.984 27.4312C173.986 27.415 173.991 27.3994 174 27.3855C174.008 27.3716 174.02 27.3598 174.033 27.3508C174.044 27.3395 174.057 27.3307 174.071 27.3253C174.086 27.3198 174.102 27.3178 174.117 27.3194C174.132 27.3211 174.147 27.3263 174.16 27.3346C174.173 27.343 174.184 27.3542 174.192 27.3676L174.505 27.7423C174.521 27.7685 174.528 27.7993 174.525 27.8298C174.521 27.8604 174.508 27.889 174.487 27.9114C174.457 27.919 174.425 27.9156 174.398 27.902Z" fill="url(#paint25_linear_125_86)"/>
<path d="M175.14 27.437L174.305 27.3492C174.273 27.3459 174.244 27.3302 174.224 27.3054C174.204 27.2807 174.195 27.249 174.198 27.2173C174.2 27.2021 174.204 27.1873 174.212 27.174C174.22 27.1607 174.23 27.1491 174.242 27.14C174.254 27.1309 174.269 27.1244 174.284 27.1211C174.298 27.1177 174.314 27.1175 174.329 27.1205L175.164 27.2083C175.18 27.2085 175.195 27.2119 175.209 27.2183C175.223 27.2247 175.235 27.2339 175.245 27.2454C175.255 27.2569 175.263 27.2704 175.268 27.285C175.272 27.2996 175.274 27.315 175.272 27.3302C175.269 27.3619 175.253 27.3909 175.228 27.411C175.204 27.431 175.172 27.4404 175.14 27.437Z" fill="url(#paint26_linear_125_86)"/>
<path d="M173.569 27.2719L172.744 27.1851C172.712 27.1818 172.683 27.166 172.663 27.1413C172.643 27.1166 172.633 27.0849 172.637 27.0532C172.638 27.038 172.643 27.0232 172.651 27.0099C172.658 26.9966 172.668 26.985 172.681 26.9759C172.693 26.9667 172.707 26.9603 172.722 26.957C172.737 26.9536 172.753 26.9534 172.768 26.9564L173.593 27.0431C173.608 27.0434 173.623 27.0468 173.637 27.0532C173.651 27.0595 173.664 27.0688 173.674 27.0803C173.684 27.0917 173.692 27.1052 173.696 27.1198C173.701 27.1344 173.703 27.1498 173.701 27.1651C173.698 27.1967 173.682 27.2258 173.657 27.2458C173.632 27.2658 173.601 27.2752 173.569 27.2719Z" fill="url(#paint27_linear_125_86)"/>
<path d="M173.805 28.5637C173.79 28.5621 173.775 28.5574 173.762 28.5498C173.749 28.5423 173.737 28.532 173.728 28.5197C173.719 28.5073 173.712 28.4933 173.709 28.4783C173.706 28.4633 173.705 28.4479 173.708 28.4328L173.8 27.5576C173.801 27.5423 173.804 27.5272 173.81 27.5133C173.817 27.4993 173.826 27.4869 173.838 27.4768C173.849 27.4666 173.862 27.4589 173.877 27.4543C173.892 27.4497 173.907 27.4481 173.922 27.4498C173.954 27.4531 173.983 27.4689 174.003 27.4936C174.023 27.5184 174.032 27.55 174.029 27.5817L173.941 28.4171C173.946 28.4363 173.946 28.4564 173.941 28.4756C173.936 28.4948 173.926 28.5124 173.913 28.5269C173.899 28.5414 173.882 28.5524 173.864 28.5588C173.845 28.5652 173.825 28.5669 173.805 28.5637Z" fill="url(#paint28_linear_125_86)"/>
<path d="M173.976 26.9426C173.96 26.941 173.946 26.9363 173.932 26.9288C173.919 26.9212 173.907 26.9109 173.898 26.8986C173.889 26.8863 173.883 26.8722 173.879 26.8572C173.876 26.8423 173.876 26.8268 173.879 26.8117L173.966 25.9863C173.966 25.971 173.969 25.9558 173.976 25.9419C173.982 25.928 173.991 25.9155 174.003 25.9054C174.014 25.8952 174.028 25.8876 174.042 25.8829C174.057 25.8783 174.072 25.8768 174.087 25.8784C174.119 25.8818 174.148 25.8975 174.168 25.9223C174.188 25.947 174.198 25.9787 174.194 26.0103L174.108 26.8358C174.104 26.8674 174.088 26.8965 174.064 26.9165C174.039 26.9365 174.007 26.9459 173.976 26.9426Z" fill="url(#paint29_linear_125_86)"/>
<path d="M174.415 27.1597L174.077 26.7421C174.057 26.7202 174.03 26.7064 174.001 26.7034C173.971 26.7003 173.942 26.7081 173.918 26.7254L173.5 27.0636C173.487 27.0715 173.476 27.0825 173.467 27.0956C173.459 27.1087 173.454 27.1235 173.452 27.1389C173.451 27.1544 173.453 27.17 173.458 27.1845C173.464 27.1991 173.472 27.2121 173.484 27.2227L173.822 27.6403C173.842 27.6622 173.869 27.676 173.898 27.6791C173.928 27.6822 173.957 27.6743 173.981 27.657L174.399 27.3189C174.421 27.299 174.434 27.2718 174.437 27.2425C174.44 27.2131 174.433 27.1837 174.415 27.1597Z" fill="url(#paint30_linear_125_86)"/>
<path d="M34.5302 13.1812L34.4407 13.1718C34.4247 13.1456 34.4178 13.1148 34.421 13.0842C34.4242 13.0537 34.4374 13.025 34.4585 13.0027L34.8322 12.7001C34.8584 12.6841 34.8891 12.6772 34.9197 12.6804C34.9502 12.6836 34.9789 12.6968 35.0012 12.7179C35.0112 12.7301 35.0186 12.7442 35.0231 12.7594C35.0276 12.7745 35.0291 12.7904 35.0274 12.8061C35.0258 12.8218 35.0211 12.837 35.0135 12.8509C35.006 12.8648 34.9957 12.877 34.9835 12.887L34.6098 13.1896C34.5831 13.1969 34.5547 13.1939 34.5302 13.1812Z" fill="url(#paint31_linear_125_86)"/>
<path d="M35.3006 12.5482C35.274 12.5555 35.2456 12.5525 35.221 12.5399C35.2096 12.5283 35.2009 12.5144 35.1955 12.499C35.1902 12.4837 35.1883 12.4673 35.19 12.4511C35.1917 12.435 35.1969 12.4194 35.2054 12.4055C35.2138 12.3916 35.2252 12.3798 35.2388 12.3708L35.6125 12.0682C35.623 12.0568 35.6361 12.0481 35.6506 12.0426C35.6652 12.0372 35.6808 12.0352 35.6962 12.0368C35.7117 12.0384 35.7265 12.0436 35.7396 12.052C35.7527 12.0603 35.7636 12.0716 35.7716 12.0849C35.7816 12.0972 35.789 12.1113 35.7935 12.1264C35.798 12.1416 35.7995 12.1575 35.7978 12.1732C35.7962 12.1889 35.7914 12.2041 35.7839 12.218C35.7763 12.2318 35.7661 12.2441 35.7538 12.254L35.3802 12.5566C35.3535 12.5639 35.3251 12.5609 35.3006 12.5482Z" fill="url(#paint32_linear_125_86)"/>
<path d="M34.9316 12.5195C34.9049 12.5259 34.8768 12.523 34.852 12.5111L34.5484 12.1474C34.5324 12.1212 34.5255 12.0904 34.5287 12.0599C34.5319 12.0293 34.545 12.0007 34.5661 11.9783C34.5784 11.9684 34.5925 11.9609 34.6076 11.9564C34.6228 11.9519 34.6387 11.9505 34.6544 11.9521C34.6701 11.9538 34.6853 11.9585 34.6992 11.9661C34.713 11.9736 34.7253 11.9838 34.7352 11.9961L35.0289 12.3588C35.0403 12.3704 35.049 12.3843 35.0544 12.3997C35.0598 12.415 35.0617 12.4314 35.06 12.4475C35.0583 12.4637 35.053 12.4793 35.0446 12.4932C35.0361 12.5071 35.0247 12.5189 35.0111 12.5279C34.9844 12.5343 34.9564 12.5313 34.9316 12.5195Z" fill="url(#paint33_linear_125_86)"/>
<path d="M35.5724 13.3108C35.5457 13.3172 35.5176 13.3143 35.4928 13.3025L35.1803 12.9277C35.1643 12.9015 35.1573 12.8708 35.1606 12.8402C35.1638 12.8097 35.1769 12.781 35.198 12.7587C35.2103 12.7487 35.2244 12.7413 35.2395 12.7368C35.2547 12.7323 35.2706 12.7308 35.2863 12.7325C35.302 12.7341 35.3172 12.7388 35.3311 12.7464C35.3449 12.7539 35.3572 12.7641 35.3671 12.7764L35.6697 13.1501C35.6797 13.1624 35.6871 13.1765 35.6916 13.1916C35.6961 13.2068 35.6976 13.2226 35.6959 13.2384C35.6943 13.2541 35.6895 13.2693 35.682 13.2832C35.6744 13.297 35.6642 13.3093 35.6519 13.3192C35.6252 13.3256 35.5972 13.3226 35.5724 13.3108Z" fill="url(#paint34_linear_125_86)"/>
<path d="M36.2753 12.8417L35.4299 12.7529C35.3983 12.7495 35.3692 12.7338 35.3492 12.7091C35.3292 12.6843 35.3198 12.6526 35.3231 12.621C35.3288 12.5914 35.3454 12.5649 35.3696 12.547C35.3939 12.529 35.424 12.5209 35.454 12.5241L36.2993 12.613C36.3283 12.616 36.3549 12.6305 36.3733 12.6531C36.3916 12.6758 36.4003 12.7049 36.3972 12.7339C36.397 12.7492 36.3936 12.7643 36.3872 12.7782C36.3808 12.7922 36.3716 12.8046 36.3601 12.8148C36.3486 12.8249 36.3351 12.8326 36.3205 12.8372C36.3059 12.8418 36.2905 12.8434 36.2753 12.8417Z" fill="url(#paint35_linear_125_86)"/>
<path d="M34.7437 12.6807L33.9083 12.5929C33.893 12.5914 33.8783 12.5867 33.865 12.5791C33.8516 12.5715 33.84 12.5613 33.8309 12.549C33.8218 12.5367 33.8154 12.5225 33.812 12.5076C33.8087 12.4926 33.8085 12.4771 33.8114 12.4621C33.8145 12.4331 33.8289 12.4065 33.8516 12.3881C33.8743 12.3698 33.9033 12.3612 33.9323 12.3642L34.7677 12.452C34.7968 12.4551 34.8234 12.4695 34.8417 12.4922C34.8601 12.5148 34.8687 12.5439 34.8656 12.5729C34.8654 12.5882 34.862 12.6033 34.8556 12.6173C34.8492 12.6312 34.84 12.6437 34.8285 12.6538C34.817 12.664 34.8036 12.6716 34.789 12.6762C34.7743 12.6809 34.7589 12.6824 34.7437 12.6807Z" fill="url(#paint36_linear_125_86)"/>
<path d="M34.98 13.9725C34.9483 13.9692 34.9193 13.9534 34.8992 13.9287C34.8792 13.904 34.8698 13.8723 34.8732 13.8406L34.9651 12.9655C34.9685 12.9338 34.9842 12.9048 35.009 12.8848C35.0337 12.8647 35.0654 12.8553 35.097 12.8587C35.117 12.8518 35.1384 12.8504 35.1591 12.8544C35.1798 12.8585 35.1991 12.868 35.215 12.8819C35.2308 12.8958 35.2428 12.9137 35.2495 12.9337C35.2563 12.9537 35.2577 12.9751 35.2536 12.9958L35.1658 13.8312C35.1767 13.8558 35.1789 13.8835 35.1722 13.9096C35.1655 13.9358 35.1501 13.9589 35.1287 13.9752C35.1072 13.9915 35.0808 14.0002 35.0538 13.9997C35.0269 13.9992 35.0008 13.9896 34.98 13.9725Z" fill="url(#paint37_linear_125_86)"/>
<path d="M35.1503 12.3515C35.1187 12.3481 35.0897 12.3324 35.0696 12.3076C35.0496 12.2829 35.0402 12.2512 35.0435 12.2196L35.1303 11.3941C35.1336 11.3625 35.1494 11.3334 35.1741 11.3134C35.1989 11.2934 35.2305 11.284 35.2622 11.2873C35.2938 11.2906 35.3229 11.3064 35.3429 11.3311C35.3629 11.3559 35.3723 11.3876 35.369 11.4192L35.2822 12.2447C35.2789 12.2763 35.2631 12.3053 35.2384 12.3254C35.2137 12.3454 35.182 12.3548 35.1503 12.3515Z" fill="url(#paint38_linear_125_86)"/>
<path d="M35.5801 12.5676L35.2519 12.151C35.2295 12.1299 35.2009 12.1167 35.1703 12.1135C35.1398 12.1103 35.109 12.1172 35.0828 12.1332L34.6751 12.4725C34.6618 12.4804 34.6505 12.4914 34.6421 12.5045C34.6338 12.5175 34.6286 12.5324 34.627 12.5478C34.6253 12.5633 34.6273 12.5789 34.6328 12.5934C34.6382 12.608 34.647 12.621 34.6584 12.6316L34.9866 13.0481C35.0112 13.0608 35.0396 13.0638 35.0662 13.0565C35.0945 13.0681 35.1256 13.0714 35.1557 13.0659L35.5634 12.7267C35.5767 12.7187 35.588 12.7078 35.5964 12.6947C35.6047 12.6816 35.6099 12.6667 35.6115 12.6513C35.6131 12.6359 35.6112 12.6203 35.6057 12.6057C35.6002 12.5912 35.5915 12.5781 35.5801 12.5676Z" fill="url(#paint39_linear_125_86)"/>
<path d="M145.277 238.572L19.4204 225.344L9.63046 213.254L30.0198 19.263L42.1093 9.4731L167.966 22.7012L177.756 34.7907L157.367 228.782L145.277 238.572ZM19.5837 225.13L145.162 238.329L157.099 228.653L177.468 34.851L167.804 22.9053L42.1758 9.7013L30.2391 19.3766L9.86965 213.179L19.5837 225.13Z" fill="url(#paint40_linear_125_86)"/>
</g>
<defs>
<radialGradient id="paint0_radial_125_86" cx="0" cy="0" r="1" gradientUnits="userSpaceOnUse" gradientTransform="translate(104.688 19.1755) rotate(-174) scale(91.96 196.794)">
<stop stop-color="#FA4D1E"/>
<stop offset="1" stop-color="#181727"/>
</radialGradient>
<linearGradient id="paint1_linear_125_86" x1="96.9628" y1="167.201" x2="150.64" y2="31.9005" gradientUnits="userSpaceOnUse">
<stop stop-color="#666666"/>
<stop offset="0.28" stop-color="#A0A0A0"/>
<stop offset="0.51" stop-color="#CCCCCC"/>
<stop offset="1" stop-color="#666666"/>
</linearGradient>
<linearGradient id="paint2_linear_125_86" x1="30.9204" y1="254.456" x2="137.326" y2="119.247" gradientUnits="userSpaceOnUse">
<stop stop-color="#666666"/>
<stop offset="0.28" stop-color="#A0A0A0"/>
<stop offset="0.51" stop-color="#CCCCCC"/>
<stop offset="1" stop-color="#666666"/>
</linearGradient>
<linearGradient id="paint3_linear_125_86" x1="21.7445" y1="116.46" x2="165.592" y2="131.579" gradientUnits="userSpaceOnUse">
<stop stop-color="#B68D5D"/>
<stop offset="0.07" stop-color="#BD9463"/>
<stop offset="0.51" stop-color="#E4C084"/>
<stop offset="1" stop-color="#B68D5D"/>
</linearGradient>
<linearGradient id="paint4_linear_125_86" x1="13.8292" y1="220.175" x2="13.4218" y2="220.736" gradientUnits="userSpaceOnUse">
<stop stop-color="#9D6748"/>
<stop offset="0.26" stop-color="#CE5932"/>
<stop offset="0.51" stop-color="#FA4D1E"/>
<stop offset="1" stop-color="#9D6748"/>
</linearGradient>
<linearGradient id="paint5_linear_125_86" x1="13.0443" y1="220.81" x2="12.6368" y2="221.372" gradientUnits="userSpaceOnUse">
<stop stop-color="#9D6748"/>
<stop offset="0.26" stop-color="#CE5932"/>
<stop offset="0.51" stop-color="#FA4D1E"/>
<stop offset="1" stop-color="#9D6748"/>
</linearGradient>
<linearGradient id="paint6_linear_125_86" x1="13.6624" y1="221.018" x2="13.4548" y2="221.302" gradientUnits="userSpaceOnUse">
<stop stop-color="#9D6748"/>
<stop offset="0.26" stop-color="#CE5932"/>
<stop offset="0.51" stop-color="#FA4D1E"/>
<stop offset="1" stop-color="#9D6748"/>
</linearGradient>
<linearGradient id="paint7_linear_125_86" x1="13.0268" y1="220.233" x2="12.8114" y2="220.523" gradientUnits="userSpaceOnUse">
<stop stop-color="#9D6748"/>
<stop offset="0.26" stop-color="#CE5932"/>
<stop offset="0.51" stop-color="#FA4D1E"/>
<stop offset="1" stop-color="#9D6748"/>
</linearGradient>
<linearGradient id="paint8_linear_125_86" x1="12.4319" y1="220.467" x2="12.5053" y2="220.917" gradientUnits="userSpaceOnUse">
<stop stop-color="#9D6748"/>
<stop offset="0.26" stop-color="#CE5932"/>
<stop offset="0.51" stop-color="#FA4D1E"/>
<stop offset="1" stop-color="#9D6748"/>
</linearGradient>
<linearGradient id="paint9_linear_125_86" x1="13.9923" y1="220.641" x2="14.0667" y2="221.081" gradientUnits="userSpaceOnUse">
<stop stop-color="#9D6748"/>
<stop offset="0.26" stop-color="#CE5932"/>
<stop offset="0.51" stop-color="#FA4D1E"/>
<stop offset="1" stop-color="#9D6748"/>
</linearGradient>
<linearGradient id="paint10_linear_125_86" x1="13.2499" y1="219.477" x2="13.4118" y2="220.52" gradientUnits="userSpaceOnUse">
<stop stop-color="#9D6748"/>
<stop offset="0.26" stop-color="#CE5932"/>
<stop offset="0.51" stop-color="#FA4D1E"/>
<stop offset="1" stop-color="#9D6748"/>
</linearGradient>
<linearGradient id="paint11_linear_125_86" x1="13.0847" y1="221.048" x2="13.2476" y2="222.081" gradientUnits="userSpaceOnUse">
<stop stop-color="#9D6748"/>
<stop offset="0.26" stop-color="#CE5932"/>
<stop offset="0.51" stop-color="#FA4D1E"/>
<stop offset="1" stop-color="#9D6748"/>
</linearGradient>
<linearGradient id="paint12_linear_125_86" x1="13.172" y1="220.313" x2="13.3245" y2="221.254" gradientUnits="userSpaceOnUse">
<stop stop-color="#9D6748"/>
<stop offset="0.26" stop-color="#CE5932"/>
<stop offset="0.51" stop-color="#FA4D1E"/>
<stop offset="1" stop-color="#9D6748"/>
</linearGradient>
<linearGradient id="paint13_linear_125_86" x1="143.751" y1="231.398" x2="144.034" y2="232.035" gradientUnits="userSpaceOnUse">
<stop stop-color="#9D6748"/>
<stop offset="0.26" stop-color="#CE5932"/>
<stop offset="0.51" stop-color="#FA4D1E"/>
<stop offset="1" stop-color="#9D6748"/>
</linearGradient>
<linearGradient id="paint14_linear_125_86" x1="144.39" y1="232.187" x2="144.673" y2="232.823" gradientUnits="userSpaceOnUse">
<stop stop-color="#9D6748"/>
<stop offset="0.26" stop-color="#CE5932"/>
<stop offset="0.51" stop-color="#FA4D1E"/>
<stop offset="1" stop-color="#9D6748"/>
</linearGradient>
<linearGradient id="paint15_linear_125_86" x1="143.739" y1="232.261" x2="143.884" y2="232.583" gradientUnits="userSpaceOnUse">
<stop stop-color="#9D6748"/>
<stop offset="0.26" stop-color="#CE5932"/>
<stop offset="0.51" stop-color="#FA4D1E"/>
<stop offset="1" stop-color="#9D6748"/>
</linearGradient>
<linearGradient id="paint16_linear_125_86" x1="144.527" y1="231.623" x2="144.678" y2="231.953" gradientUnits="userSpaceOnUse">
<stop stop-color="#9D6748"/>
<stop offset="0.26" stop-color="#CE5932"/>
<stop offset="0.51" stop-color="#FA4D1E"/>
<stop offset="1" stop-color="#9D6748"/>
</linearGradient>
<linearGradient id="paint17_linear_125_86" x1="152.928" y1="235.234" x2="152.773" y2="235.66" gradientUnits="userSpaceOnUse">
<stop stop-color="#9D6748"/>
<stop offset="0.26" stop-color="#CE5932"/>
<stop offset="0.51" stop-color="#FA4D1E"/>
<stop offset="1" stop-color="#9D6748"/>
</linearGradient>
<linearGradient id="paint18_linear_125_86" x1="151.366" y1="235.079" x2="151.201" y2="235.494" gradientUnits="userSpaceOnUse">
<stop stop-color="#9D6748"/>
<stop offset="0.26" stop-color="#CE5932"/>
<stop offset="0.51" stop-color="#FA4D1E"/>
<stop offset="1" stop-color="#9D6748"/>
</linearGradient>
<linearGradient id="paint19_linear_125_86" x1="152.344" y1="234.096" x2="151.959" y2="235.081" gradientUnits="userSpaceOnUse">
<stop stop-color="#9D6748"/>
<stop offset="0.26" stop-color="#CE5932"/>
<stop offset="0.51" stop-color="#FA4D1E"/>
<stop offset="1" stop-color="#9D6748"/>
</linearGradient>
<linearGradient id="paint20_linear_125_86" x1="152.169" y1="235.667" x2="151.804" y2="236.644" gradientUnits="userSpaceOnUse">
<stop stop-color="#9D6748"/>
<stop offset="0.26" stop-color="#CE5932"/>
<stop offset="0.51" stop-color="#FA4D1E"/>
<stop offset="1" stop-color="#9D6748"/>
</linearGradient>
<linearGradient id="paint21_linear_125_86" x1="152.236" y1="234.93" x2="151.891" y2="235.818" gradientUnits="userSpaceOnUse">
<stop stop-color="#9D6748"/>
<stop offset="0.26" stop-color="#CE5932"/>
<stop offset="0.51" stop-color="#FA4D1E"/>
<stop offset="1" stop-color="#9D6748"/>
</linearGradient>
<linearGradient id="paint22_linear_125_86" x1="173.332" y1="27.795" x2="173.74" y2="27.2335" gradientUnits="userSpaceOnUse">
<stop stop-color="#9D6748"/>
<stop offset="0.26" stop-color="#CE5932"/>
<stop offset="0.51" stop-color="#FA4D1E"/>
<stop offset="1" stop-color="#9D6748"/>
</linearGradient>
<linearGradient id="paint23_linear_125_86" x1="174.117" y1="27.1594" x2="174.525" y2="26.5978" gradientUnits="userSpaceOnUse">
<stop stop-color="#9D6748"/>
<stop offset="0.26" stop-color="#CE5932"/>
<stop offset="0.51" stop-color="#FA4D1E"/>
<stop offset="1" stop-color="#9D6748"/>
</linearGradient>
<linearGradient id="paint24_linear_125_86" x1="173.499" y1="26.9522" x2="173.707" y2="26.6683" gradientUnits="userSpaceOnUse">
<stop stop-color="#9D6748"/>
<stop offset="0.26" stop-color="#CE5932"/>
<stop offset="0.51" stop-color="#FA4D1E"/>
<stop offset="1" stop-color="#9D6748"/>
</linearGradient>
<linearGradient id="paint25_linear_125_86" x1="174.135" y1="27.7371" x2="174.35" y2="27.4469" gradientUnits="userSpaceOnUse">
<stop stop-color="#9D6748"/>
<stop offset="0.26" stop-color="#CE5932"/>
<stop offset="0.51" stop-color="#FA4D1E"/>
<stop offset="1" stop-color="#9D6748"/>
</linearGradient>
<linearGradient id="paint26_linear_125_86" x1="174.762" y1="27.4978" x2="174.697" y2="27.0587" gradientUnits="userSpaceOnUse">
<stop stop-color="#9D6748"/>
<stop offset="0.26" stop-color="#CE5932"/>
<stop offset="0.51" stop-color="#FA4D1E"/>
<stop offset="1" stop-color="#9D6748"/>
</linearGradient>
<linearGradient id="paint27_linear_125_86" x1="173.201" y1="27.3337" x2="173.126" y2="26.8935" gradientUnits="userSpaceOnUse">
<stop stop-color="#9D6748"/>
<stop offset="0.26" stop-color="#CE5932"/>
<stop offset="0.51" stop-color="#FA4D1E"/>
<stop offset="1" stop-color="#9D6748"/>
</linearGradient>
<linearGradient id="paint28_linear_125_86" x1="173.953" y1="28.4987" x2="173.781" y2="27.4551" gradientUnits="userSpaceOnUse">
<stop stop-color="#9D6748"/>
<stop offset="0.26" stop-color="#CE5932"/>
<stop offset="0.51" stop-color="#FA4D1E"/>
<stop offset="1" stop-color="#9D6748"/>
</linearGradient>
<linearGradient id="paint29_linear_125_86" x1="174.108" y1="26.9263" x2="173.955" y2="25.8947" gradientUnits="userSpaceOnUse">
<stop stop-color="#9D6748"/>
<stop offset="0.26" stop-color="#CE5932"/>
<stop offset="0.51" stop-color="#FA4D1E"/>
<stop offset="1" stop-color="#9D6748"/>
</linearGradient>
<linearGradient id="paint30_linear_125_86" x1="174.021" y1="27.6612" x2="173.868" y2="26.7202" gradientUnits="userSpaceOnUse">
<stop stop-color="#9D6748"/>
<stop offset="0.26" stop-color="#CE5932"/>
<stop offset="0.51" stop-color="#FA4D1E"/>
<stop offset="1" stop-color="#9D6748"/>
</linearGradient>
<linearGradient id="paint31_linear_125_86" x1="34.5002" y1="13.2032" x2="34.9076" y2="12.6416" gradientUnits="userSpaceOnUse">
<stop stop-color="#9D6748"/>
<stop offset="0.26" stop-color="#CE5932"/>
<stop offset="0.51" stop-color="#FA4D1E"/>
<stop offset="1" stop-color="#9D6748"/>
</linearGradient>
<linearGradient id="paint32_linear_125_86" x1="35.2851" y1="12.5675" x2="35.6925" y2="12.006" gradientUnits="userSpaceOnUse">
<stop stop-color="#9D6748"/>
<stop offset="0.26" stop-color="#CE5932"/>
<stop offset="0.51" stop-color="#FA4D1E"/>
<stop offset="1" stop-color="#9D6748"/>
</linearGradient>
<linearGradient id="paint33_linear_125_86" x1="34.667" y1="12.3604" x2="34.8823" y2="12.0702" gradientUnits="userSpaceOnUse">
<stop stop-color="#9D6748"/>
<stop offset="0.26" stop-color="#CE5932"/>
<stop offset="0.51" stop-color="#FA4D1E"/>
<stop offset="1" stop-color="#9D6748"/>
</linearGradient>
<linearGradient id="paint34_linear_125_86" x1="35.3026" y1="13.1453" x2="35.518" y2="12.8551" gradientUnits="userSpaceOnUse">
<stop stop-color="#9D6748"/>
<stop offset="0.26" stop-color="#CE5932"/>
<stop offset="0.51" stop-color="#FA4D1E"/>
<stop offset="1" stop-color="#9D6748"/>
</linearGradient>
<linearGradient id="paint35_linear_125_86" x1="35.9366" y1="12.9067" x2="35.8622" y2="12.4665" gradientUnits="userSpaceOnUse">
<stop stop-color="#9D6748"/>
<stop offset="0.26" stop-color="#CE5932"/>
<stop offset="0.51" stop-color="#FA4D1E"/>
<stop offset="1" stop-color="#9D6748"/>
</linearGradient>
<linearGradient id="paint36_linear_125_86" x1="34.3653" y1="12.7415" x2="34.3008" y2="12.3024" gradientUnits="userSpaceOnUse">
<stop stop-color="#9D6748"/>
<stop offset="0.26" stop-color="#CE5932"/>
<stop offset="0.51" stop-color="#FA4D1E"/>
<stop offset="1" stop-color="#9D6748"/>
</linearGradient>
<linearGradient id="paint37_linear_125_86" x1="35.1176" y1="13.9066" x2="34.9557" y2="12.8639" gradientUnits="userSpaceOnUse">
<stop stop-color="#9D6748"/>
<stop offset="0.26" stop-color="#CE5932"/>
<stop offset="0.51" stop-color="#FA4D1E"/>
<stop offset="1" stop-color="#9D6748"/>
</linearGradient>
<linearGradient id="paint38_linear_125_86" x1="35.2828" y1="12.3352" x2="35.1198" y2="11.3025" gradientUnits="userSpaceOnUse">
<stop stop-color="#9D6748"/>
<stop offset="0.26" stop-color="#CE5932"/>
<stop offset="0.51" stop-color="#FA4D1E"/>
<stop offset="1" stop-color="#9D6748"/>
</linearGradient>
<linearGradient id="paint39_linear_125_86" x1="35.1855" y1="13.0691" x2="35.043" y2="12.129" gradientUnits="userSpaceOnUse">
<stop stop-color="#9D6748"/>
<stop offset="0.26" stop-color="#CE5932"/>
<stop offset="0.51" stop-color="#FA4D1E"/>
<stop offset="1" stop-color="#9D6748"/>
</linearGradient>
<linearGradient id="paint40_linear_125_86" x1="19.8251" y1="116.259" x2="167.512" y2="131.781" gradientUnits="userSpaceOnUse">
<stop stop-color="#9D6748"/>
<stop offset="0.26" stop-color="#CE5932"/>
<stop offset="0.51" stop-color="#FA4D1E"/>
<stop offset="1" stop-color="#9D6748"/>
</linearGradient>
<clipPath id="clip0_125_86">
<rect x="24.2549" y="0.0652695" width="163.98" height="232.04" rx="10" transform="rotate(6 24.2549 0.0652695)" fill="white"/>
</clipPath>
</defs>
</svg>
