{"extensionsUsed" : ["KHR_materials_ior"], "accessors" : [{"bufferView" : 0, "byteOffset" : 0, "componentType" : 5123, "count" : 7194, "type" : "SCALAR", "max" : [5893], "min" : [0]}, {"bufferView" : 1, "byteOffset" : 0, "componentType" : 5126, "count" : 5894, "type" : "VEC3", "max" : [0.18193542957305908, 0.5246774554252625, 0.16600771248340607], "min" : [-0.2057025134563446, -0.0025058749597519636, -0.18068140745162964], "name" : "POSITION"}, {"bufferView" : 1, "byteOffset" : 12, "componentType" : 5126, "count" : 5894, "type" : "VEC2", "max" : [0.9980536103248596, 0.9985923171043396], "min" : [0.0014112888602539897, 0.0014088153839111328], "name" : "TEXCOORD_0"}, {"bufferView" : 1, "byteOffset" : 20, "componentType" : 5126, "count" : 5894, "type" : "VEC3", "max" : [0.9968778491020203, 0.9987595081329346, 0.9998998641967773], "min" : [-0.9995349645614624, -0.9939720630645752, -0.9995770454406738], "name" : "NORMAL"}, {"bufferView" : 0, "byteOffset" : 14388, "componentType" : 5123, "count" : 762, "type" : "SCALAR", "max" : [618], "min" : [0]}, {"bufferView" : 2, "byteOffset" : 0, "componentType" : 5126, "count" : 619, "type" : "VEC3", "max" : [0.06820850074291229, 0.13770386576652527, 0.06820853799581528], "min" : [-0.06820856779813766, 0.0004671309143304825, -0.06820853799581528], "name" : "POSITION"}, {"bufferView" : 2, "byteOffset" : 12, "componentType" : 5126, "count" : 619, "type" : "VEC2", "max" : [0.9961851239204407, 0.9998011589050293], "min" : [0.00019884679932147264, 0.00019884109497070312], "name" : "TEXCOORD_0"}, {"bufferView" : 2, "byteOffset" : 20, "componentType" : 5126, "count" : 619, "type" : "VEC3", "max" : [1.0000044107437134, 0.9997661113739014, 1.0000044107437134], "min" : [-1.0000044107437134, 0, -1.0000044107437134], "name" : "NORMAL"}], "asset" : {"generator" : "Aspose.3D 23.2", "version" : "2.0"}, "buffers" : [{"uri" : "data:application/octet-stream;base64,", "byteLength" : 270516}], "bufferViews" : [{"buffer" : 0, "byteOffset" : 0, "byteLength" : 15912, "target" : 34963}, {"buffer" : 0, "byteOffset" : 15916, "byteLength" : 230208, "byteStride" : 32, "target" : 34962}, {"buffer" : 0, "byteOffset" : 246128, "byteLength" : 24384, "byteStride" : 32, "target" : 34962}], "images" : [{"uri" : "data:image/jpeg;base64,"}, {"uri" : "data:image/jpeg;base64,"}, {"uri" : "data:image/jpeg;base64,"}, {"uri" : "data:image/png;base64,"}, {"uri" : "data:image/jpeg;base64,"}, {"uri" : "data:image/jpeg;base64,"}, {"uri" : "data:image/png;base64,"}], "materials" : [{"name" : "08_izyskannost", "extensions" : {"KHR_materials_ior" : {"ior" : 1.4500000476837158}}, "pbrMetallicRoughness" : {"baseColorFactor" : [1, 1, 1, 1], "baseColorTexture" : {"index" : 2, "texCoord" : 0}, "metallicFactor" : 0, "roughnessFactor" : 1, "metallicRoughnessTexture" : {"index" : 3, "texCoord" : 0}}, "normalTexture" : {"index" : 1, "texCoord" : 0, "scale" : 1}, "emissiveTexture" : {"index" : 0, "texCoord" : 0}, "emissiveFactor" : [0.30000001192092896, 0.30000001192092896, 0.30000001192092896], "alphaMode" : "OPAQUE", "doubleSided" : true}, {"name" : "00_gorshok", "extensions" : {"KHR_materials_ior" : {"ior" : 1.4500000476837158}}, "pbrMetallicRoughness" : {"baseColorFactor" : [1, 1, 1, 1], "baseColorTexture" : {"index" : 5, "texCoord" : 0}, "metallicFactor" : 0, "roughnessFactor" : 1, "metallicRoughnessTexture" : {"index" : 6, "texCoord" : 0}}, "normalTexture" : {"index" : 4, "texCoord" : 0, "scale" : 1}, "emissiveFactor" : [0, 0, 0], "alphaMode" : "OPAQUE", "doubleSided" : true}], "meshes" : [{"primitives" : [{"attributes" : {"POSITION" : 1, "TEXCOORD_0" : 2, "NORMAL" : 3}, "indices" : 0, "material" : 0, "mode" : 4}]}, {"primitives" : [{"attributes" : {"POSITION" : 5, "TEXCOORD_0" : 6, "NORMAL" : 7}, "indices" : 4, "material" : 1, "mode" : 4}]}], "nodes" : [{"mesh" : 0, "name" : "08_izyskannost"}, {"children" : [0], "name" : "08_izyskannost_armature"}, {"matrix" : [0.8507897257804871, 0, 0, 0, 0, 0.8507897257804871, 0, 0, 0, 0, 0.8507897257804871, 0, 0, -0.0966334268450737, 0, 1], "mesh" : 1, "name" : "00_gorshok"}, {"children" : [1, 2], "name" : "Scene"}], "samplers" : [{"magFilter" : 9729, "minFilter" : 9987, "wrapS" : 10497, "wrapT" : 10497}, {"magFilter" : 9729, "minFilter" : 9987, "wrapS" : 10497, "wrapT" : 10497}, {"magFilter" : 9729, "minFilter" : 9987, "wrapS" : 10497, "wrapT" : 10497}, {"magFilter" : 9729, "minFilter" : 9987, "wrapS" : 10497, "wrapT" : 10497}, {"magFilter" : 9729, "minFilter" : 9987, "wrapS" : 10497, "wrapT" : 10497}, {"magFilter" : 9729, "minFilter" : 9987, "wrapS" : 10497, "wrapT" : 10497}, {"magFilter" : 9729, "minFilter" : 9987, "wrapS" : 10497, "wrapT" : 10497}], "scene" : 0, "scenes" : [{"nodes" : [3]}], "textures" : [{"sampler" : 0, "source" : 0, "name" : ""}, {"sampler" : 1, "source" : 1, "name" : ""}, {"sampler" : 2, "source" : 2, "name" : ""}, {"sampler" : 3, "source" : 3, "name" : ""}, {"sampler" : 4, "source" : 4, "name" : ""}, {"sampler" : 5, "source" : 5, "name" : ""}, {"sampler" : 6, "source" : 6, "name" : ""}]}